# xmcd CD database file generated by Grip 3.3.1
# 
# Track frame offsets:
#       150
#       21998
#       42494
#       53443
#       74492
#       92853
#       103479
#       121032
#       127416
#       131227
#       151678
#       172111
#       200350
# 
# Disc length: 2888 seconds
# 
# Revision: 3
# Processed by: cddbd v1.5.2PL0 Copyright (c) Steve Scherf et al.
# Submitted via: Grip 3.3.1
# 
DISCID=c10b460d
DTITLE=Various Artist - Rock Sound Sampler Volumen 6
DYEAR=1998
DGENRE=Rock
TTITLE0=All In The Family (Album Version) - Korn
TTITLE1=Hi-Tech Hate - Fear Factory
TTITLE2=Fuck Off - Kabuto Jr.
TTITLE3=Godevil - Fundamental
TTITLE4=The Switch - Cold
TTITLE5=Silly Me - All
TTITLE6=I'm Ready - Royal Trux
TTITLE7=Wise Guy - Burning Heads
TTITLE8=Supersonic Spacewalk - Ross
TTITLE9=Automatak Bezela - Pi L.T.
TTITLE10=Bounced Checks - Glucifer
TTITLE11=On The Radio - Tarik
TTITLE12=Urethane - Fu Manchu
EXTD=
EXTT0=
EXTT1=
EXTT2=
EXTT3=
EXTT4=
EXTT5=
EXTT6=
EXTT7=
EXTT8=
EXTT9=
EXTT10=
EXTT11=
EXTT12=
PLAYORDER=
